<?xml version="1.0" encoding="UTF-8" standalone="no"?>
<svg width="179px" height="178px" viewBox="0 0 179 178" version="1.1" xmlns="http://www.w3.org/2000/svg" xmlns:xlink="http://www.w3.org/1999/xlink" xmlns:sketch="http://www.bohemiancoding.com/sketch/ns">
    <!-- Generator: Sketch 3.2.2 (9983) - http://www.bohemiancoding.com/sketch -->
    <title>Slice 1</title>
    <desc>Created with Sketch.</desc>
    <defs></defs>
    <g id="Page-1" stroke="none" stroke-width="1" fill="none" fill-rule="evenodd" sketch:type="MSPage">
        <circle id="Oval" fill="#040000" sketch:type="MSShapeGroup" cx="89.5" cy="89" r="89"></circle>
        <path d="M72.5,94 C72.2,94 72.1,94 72.1,93.6 L72.1,86.8 C72.1,86 72,85.3 71.8,84.8 C71.1,83.1 69.5,82.3 67.3,82.3 C65.6,82.3 64.4,82.8 63.3,83.8 L63.3,76.8 L60.9,76.8 L60.9,96 L63.3,96 L63.3,86.7 C63.8,86.1 64.4,85.5 64.9,85.1 C65.4,84.7 66.1,84.5 67.1,84.5 C68,84.5 68.6,84.7 69,85.1 C69.4,85.5 69.6,86.1 69.6,86.9 L69.6,93.6 C69.6,94.4 69.9,95 70.4,95.5 C70.6,95.7 71,95.9 71.3,96.1 C71.6,96.3 72.1,96.3 72.4,96.3 C73,96.3 73.4,96.2 73.8,95.9 C74.2,95.6 74.6,95.3 74.9,94.8 L72.9,93.5 C72.9,93.8 72.7,94 72.5,94 L72.5,94 Z M84.1,82.6 C82.5,82.6 81.3,83.2 80.4,84.3 C80,83.6 79.5,83 78.8,82.5 L77.3,83.9 C78.1,84.7 78.6,85.7 78.6,86.8 L78.6,96 L81,96 L81,86.8 C82,85.3 82.9,84.7 84.1,84.7 C84.6,84.7 85.4,84.8 86.3,85 L86.3,82.8 C86,82.7 85.6,82.7 85.3,82.6 C84.8,82.6 84.4,82.6 84.1,82.6 L84.1,82.6 Z M101.2,93.4 C101.1,93.6 101,93.7 100.8,93.7 C100.7,93.7 100.6,93.7 100.5,93.6 L98.3,90.3 C98.9,90 99.4,89.5 99.8,89.1 C100.1,88.6 100.4,88.1 100.5,87.3 C100.6,87 100.6,86.7 100.6,86.4 C100.6,85.2 100.2,84.1 99.2,83.3 C98.4,82.6 97.2,82.2 95.9,82.2 C94.3,82.2 93.1,82.7 92.2,83.7 L92.2,76.7 L89.8,76.7 L89.8,96 L92.2,96 L92.2,91 L96,91 L98.4,94.8 C98.7,95.2 99,95.5 99.5,95.7 C99.9,95.9 100.4,96 100.9,96 C101.3,96 101.7,95.9 102.1,95.7 C103.1,95.2 103.7,94.3 103.8,92.9 L101.4,92.8 C101.4,93 101.3,93.2 101.2,93.4 L101.2,93.4 Z M97.8,87.9 C97.3,88.5 96.3,88.7 95,88.7 L92.4,88.7 C92.5,87.5 92.9,86.5 93.4,85.8 C94.1,84.8 95,84.4 96.1,84.4 C97.2,84.4 98,84.9 98.3,85.7 C98.4,85.9 98.4,86 98.4,86.3 C98.4,86.9 98.3,87.3 97.8,87.9 L97.8,87.9 Z M118.3,93.5 L118,93.9 C117.9,94 117.8,94.1 117.6,94.1 C117.5,94.1 117.4,94.1 117.3,94 C117.2,93.9 117.2,93.8 117.2,93.7 L117.2,76.9 L114.8,76.9 L114.8,82.6 C113.8,82.5 112.7,82.4 112.1,82.4 C109.8,82.4 108.1,83.1 107,84.4 C105.9,85.6 105.2,87.4 105.2,89.4 C105.2,91.2 105.7,93 106.8,94.3 C107.8,95.5 109.3,96.3 111.4,96.3 C113,96.3 114.3,95.8 115.2,94.8 C115.5,95.4 115.8,95.6 116.3,95.9 C116.7,96.1 117.1,96.3 117.7,96.3 C118.8,96.3 119.6,95.8 120.3,94.7 L118.3,93.5 L118.3,93.5 Z M114.8,90.9 C114.8,91.8 114.5,92.7 113.7,93.3 C113.3,93.6 112.9,93.8 112.6,93.9 C112.1,94.1 111.7,94.1 111.3,94.1 C110.6,94.1 110,93.9 109.6,93.7 C108.4,93 107.6,91.4 107.6,89.4 C107.6,87.9 108,86.7 108.7,86 C109,85.7 109.5,85.2 110.1,85 C110.6,84.8 111.1,84.6 112.3,84.6 C113,84.6 113.9,84.7 114.9,84.8 L114.9,90.9 L114.8,90.9 Z" id="Shape" fill="#FFFFFF" sketch:type="MSShapeGroup"></path>
    </g>
</svg>