<?xml version="1.0" encoding="UTF-8" standalone="no"?>
<svg width="500px" height="500px" viewBox="0 0 500 500" version="1.1" xmlns="http://www.w3.org/2000/svg" xmlns:xlink="http://www.w3.org/1999/xlink" xmlns:sketch="http://www.bohemiancoding.com/sketch/ns">
    <!-- Generator: Sketch 3.2.2 (9983) - http://www.bohemiancoding.com/sketch -->
    <title>Rectangle 1</title>
    <desc>Created with Sketch.</desc>
    <defs></defs>
    <g id="Page-1" stroke="none" stroke-width="1" fill="none" fill-rule="evenodd" sketch:type="MSPage">
        <rect id="Rectangle-1" fill="#000000" sketch:type="MSShapeGroup" x="0" y="0" width="500" height="500"></rect>
        <path d="M135.832408,199.787875 L129.358155,199.787875 L129.358155,280.475847 L135.832408,280.475847 L135.832408,243.459659 C141.247239,236.161409 146.308928,231.570575 154.784315,231.570575 C163.495129,231.570575 168.321391,235.572841 168.321391,244.75451 L168.321391,271.176464 C168.321391,277.06215 172.794512,281.652984 178.915624,281.652984 C182.447035,281.652984 185.507592,280.122706 187.626438,277.06215 L182.211608,273.413025 C181.505326,269.817985 180.328189,275.17873 178.915624,275.17873 C176.796777,275.17873 174.795644,273.766166 174.795644,271.176464 L174.795644,244.401369 C174.795644,232.04143 168.556818,225.449462 155.608311,225.449462 C147.250638,225.449462 140.776384,228.745446 135.832408,235.808268 L135.832408,199.787875 Z M197.514389,230.040297 C200.692659,233.218567 202.222938,237.809401 202.222938,244.048228 L202.222938,280.828988 L208.697191,280.828988 L208.697191,243.577373 C210.698324,239.928248 213.523453,236.749978 215.524586,235.101986 C218.114288,232.983139 221.05713,232.04143 225.530251,232.04143 C227.060529,232.04143 228.943949,232.159144 232.122219,232.865426 L232.122219,226.744313 C227.766812,225.920317 226.825102,225.802603 225.294824,225.802603 C221.645699,225.802603 218.114288,226.508886 215.171445,228.392305 C212.581744,230.040297 209.992042,232.983139 207.990909,236.514551 C207.0492,232.159144 205.16578,228.86316 201.516655,226.155745 L197.514389,230.040297 Z M253.670189,200.023302 L247.195936,200.023302 L247.195936,280.711274 L253.670189,280.711274 L253.670189,261.940711 L273.681519,261.940711 L284.982035,275.767299 C286.74774,278.945569 290.514579,280.711274 293.928276,280.711274 C299.578534,280.711274 304.051655,276.002726 304.404796,270.587896 L297.812829,270.234755 C297.812829,272.589029 296.400264,274.001593 294.04599,274.001593 C292.868853,274.001593 291.574002,273.648452 290.86772,272.706743 L280.038059,260.175005 C285.688317,256.996735 290.86772,252.523614 290.86772,243.459659 C290.86772,232.747712 283.56947,225.449462 272.73981,225.449462 C264.617564,225.449462 257.672455,229.687156 253.670189,237.338547 L253.670189,200.023302 Z M253.905617,255.819598 C253.905617,252.759042 254.376472,249.816199 255.200468,246.873357 C258.025596,237.103119 264.264423,231.452861 272.504382,231.452861 C280.155773,231.452861 284.746607,236.396837 284.746607,242.988804 C284.746607,248.285921 281.803765,252.170473 276.859789,254.28932 C274.387801,255.348743 271.680386,255.819598 267.560407,255.819598 L253.905617,255.819598 Z M360.551052,200.023302 L354.076798,200.023302 L354.076798,226.862027 C349.839105,226.273458 345.07329,225.802603 341.541879,225.802603 C323.531682,225.802603 312.819735,238.633397 312.819735,256.643594 C312.819735,272.888085 321.530549,282.006125 338.128182,282.006125 C345.544145,282.006125 350.427673,279.180996 354.194512,272.824456 C354.900794,278.003859 359.373915,282.006125 364.788745,282.006125 C367.849301,282.006125 371.262999,280.711274 373.381845,277.297577 L368.084729,273.648452 C367.260733,270.171126 366.083596,275.531871 364.788745,275.531871 C362.434471,275.531871 360.551052,273.530738 360.551052,271.411892 L360.551052,200.023302 Z M354.076798,258.698812 C354.076798,261.641654 353.488229,264.113642 352.428806,266.232489 C349.485963,272.235888 345.191004,275.885013 338.128182,275.885013 C325.650529,275.885013 320.102276,265.117625 320.102276,253.904364 C320.102276,242.691103 324.177517,231.923716 342.423141,231.923716 C347.955685,231.923716 351.60481,232.865426 354.076798,233.100853 L354.076798,258.698812 Z" id="hrkd" fill="#FFFFFF" sketch:type="MSShapeGroup"></path>
    </g>
</svg>